<svg width="132" height="26" viewBox="0 0 132 26" fill="none" xmlns="http://www.w3.org/2000/svg">
<path d="M12.6537 23.6349H19.87L15.2045 15.474C17.5205 14.1568 18.9302 11.8756 18.9302 9.11244C18.9302 4.42156 15.2381 1.14438 10.2035 1.14438H0V23.6349H6.47787V16.7592H8.82734L12.6537 23.6349ZM6.47787 6.6706H9.4315C11.244 6.6706 12.2845 7.69876 12.2845 9.11244C12.2845 10.494 11.244 11.5543 9.4315 11.5543H6.47787V6.6706ZM29.1263 18.2693V14.8957H36.8461V9.81928H29.1263V6.50996H37.7188V1.14438H22.682V23.6349H38.0208V18.2693H29.1263ZM41.2893 12.0683H47.3309V6.50996H41.2893V12.0683ZM41.2893 23.6349H47.3309V18.1086H41.2893V23.6349ZM66.3427 24L54.0896 12.271C53.1123 11.3354 52.4606 10.2477 52.135 9.00784C51.8169 7.768 51.821 6.53576 52.1471 5.31116C52.4727 4.07892 53.1202 3.00643 54.0896 2.09365C55.0827 1.15807 56.2153 0.538148 57.4866 0.233895C58.7658 -0.0779649 60.0412 -0.0779649 61.3125 0.233895C62.5917 0.545756 63.7281 1.16568 64.7212 2.09365L66.3427 3.5997L67.9633 2.09365C68.9648 1.16568 70.1011 0.545756 71.3724 0.233895C72.6437 -0.0779649 73.915 -0.0779649 75.1863 0.233895C76.4659 0.538148 77.6018 1.15807 78.5949 2.09365C79.5648 3.00643 80.2123 4.07892 80.5383 5.31116C80.8635 6.53576 80.8635 7.768 80.5383 9.00784C80.2202 10.2477 79.5727 11.3354 78.5949 12.271L66.3427 24Z" fill="#FF9B9B"/>
<path d="M88.6857 18.8798H85.5044V20.7598H88.2693V21.4558H85.5044V24.0318H84.7632V18.1918H88.6857V18.8798ZM92.2905 23.3838C92.7236 23.3838 93.1121 23.2825 93.4564 23.0798C93.8008 22.8771 94.0698 22.6051 94.2643 22.2638C94.4587 21.9171 94.5558 21.5331 94.5558 21.1118C94.5558 20.6958 94.4587 20.3145 94.2643 19.9678C94.0698 19.6211 93.8008 19.3491 93.4564 19.1518C93.1121 18.9491 92.7236 18.8478 92.2905 18.8478C91.852 18.8478 91.4606 18.9491 91.1163 19.1518C90.7719 19.3491 90.5029 19.6211 90.3084 19.9678C90.1198 20.3145 90.0253 20.6958 90.0253 21.1118C90.0253 21.5331 90.1198 21.9171 90.3084 22.2638C90.5029 22.6105 90.7719 22.8851 91.1163 23.0878C91.4606 23.2851 91.852 23.3838 92.2905 23.3838ZM89.2841 21.1118C89.2841 20.5678 89.4119 20.0691 89.6672 19.6158C89.9283 19.1571 90.2864 18.7945 90.7415 18.5278C91.1966 18.2611 91.713 18.1278 92.2905 18.1278C92.8681 18.1278 93.3844 18.2611 93.8395 18.5278C94.2947 18.7945 94.6503 19.1571 94.9055 19.6158C95.1666 20.0691 95.297 20.5678 95.297 21.1118C95.297 21.6558 95.1666 22.1571 94.9055 22.6158C94.6503 23.0691 94.2947 23.4291 93.8395 23.6958C93.3844 23.9625 92.8681 24.0958 92.2905 24.0958C91.713 24.0958 91.1966 23.9625 90.7415 23.6958C90.2864 23.4291 89.9283 23.0691 89.6672 22.6158C89.4119 22.1571 89.2841 21.6558 89.2841 21.1118ZM98.6294 21.1918C98.846 21.1918 99.0458 21.1411 99.2291 21.0398C99.4123 20.9331 99.5568 20.7918 99.6621 20.6158C99.7733 20.4345 99.8287 20.2398 99.8287 20.0318C99.8287 19.8238 99.7733 19.6318 99.6621 19.4558C99.5568 19.2798 99.4123 19.1411 99.2291 19.0398C99.0458 18.9385 98.846 18.8878 98.6294 18.8878H96.9638V21.1918H98.6294ZM96.2309 18.1918H98.6544C98.9988 18.1918 99.3123 18.2745 99.5955 18.4398C99.8841 18.5998 100.112 18.8211 100.278 19.1038C100.45 19.3865 100.537 19.6958 100.537 20.0318C100.531 20.4585 100.395 20.8345 100.128 21.1598C99.8674 21.4798 99.5343 21.6931 99.1291 21.7998L100.828 24.0318H99.9286L98.288 21.8798H96.9638V24.0318H96.2309V18.1918ZM107.711 19.5758C107.6 19.3891 107.442 19.2291 107.236 19.0958C106.914 18.8878 106.556 18.7838 106.162 18.7838C106.062 18.7838 105.99 18.7865 105.946 18.7918C105.74 18.8131 105.56 18.8611 105.404 18.9358C105.249 19.0105 105.124 19.1358 105.03 19.3118C104.98 19.4238 104.955 19.5358 104.955 19.6478C104.955 19.8451 105.013 20.0131 105.129 20.1518C105.224 20.2585 105.335 20.3545 105.463 20.4398C105.568 20.5038 105.66 20.5571 105.737 20.5998C105.815 20.6371 105.904 20.6691 106.004 20.6958L106.412 20.8238C106.895 20.9625 107.261 21.0958 107.511 21.2238C107.767 21.3465 107.955 21.4718 108.078 21.5998C108.178 21.7118 108.261 21.8478 108.327 22.0078C108.394 22.1678 108.427 22.3411 108.427 22.5278C108.427 22.7305 108.386 22.9251 108.302 23.1118C108.13 23.4265 107.861 23.6771 107.495 23.8638C107.156 24.0185 106.873 24.1011 106.645 24.1118C106.512 24.1225 106.415 24.1278 106.354 24.1278C105.837 24.1278 105.346 23.9785 104.88 23.6798C104.635 23.5251 104.435 23.3465 104.28 23.1438C104.13 22.9411 104.03 22.7678 103.98 22.6238L104.68 22.3918C104.724 22.5038 104.793 22.6265 104.888 22.7598C104.988 22.8931 105.121 23.0131 105.288 23.1198C105.476 23.2371 105.651 23.3225 105.812 23.3758C105.973 23.4291 106.143 23.4558 106.32 23.4558C106.376 23.4558 106.464 23.4505 106.587 23.4398C106.748 23.4238 106.937 23.3678 107.153 23.2718C107.37 23.1545 107.528 23.0105 107.628 22.8398C107.683 22.7278 107.711 22.6185 107.711 22.5118C107.711 22.3465 107.65 22.1945 107.528 22.0558C107.456 21.9705 107.325 21.8878 107.137 21.8078C106.953 21.7225 106.642 21.6105 106.204 21.4718L105.796 21.3438C105.496 21.2425 105.249 21.1251 105.055 20.9918C104.938 20.9171 104.835 20.8425 104.746 20.7678C104.663 20.6931 104.605 20.6345 104.572 20.5918C104.472 20.4745 104.388 20.3331 104.322 20.1678C104.255 20.0025 104.222 19.8291 104.222 19.6478C104.222 19.4398 104.269 19.2371 104.363 19.0398C104.507 18.7411 104.721 18.5225 105.005 18.3838C105.288 18.2398 105.573 18.1518 105.862 18.1198C105.918 18.1145 106.004 18.1118 106.121 18.1118C106.709 18.1118 107.214 18.2505 107.636 18.5278C107.93 18.7145 108.163 18.9438 108.336 19.2158L107.711 19.5758ZM113.491 18.8798H110.218V20.6798H113.233V21.3758H110.218V23.3358H113.491V24.0318H109.485V18.1918H113.491V18.8798ZM117.438 23.3838C117.871 23.3838 118.259 23.2825 118.603 23.0798C118.947 22.8771 119.217 22.6051 119.411 22.2638C119.605 21.9171 119.703 21.5331 119.703 21.1118C119.703 20.6958 119.605 20.3145 119.411 19.9678C119.217 19.6211 118.947 19.3491 118.603 19.1518C118.259 18.9491 117.871 18.8478 117.438 18.8478C116.999 18.8478 116.607 18.9491 116.263 19.1518C115.919 19.3491 115.65 19.6211 115.455 19.9678C115.266 20.3145 115.172 20.6958 115.172 21.1118C115.172 21.5331 115.266 21.9171 115.455 22.2638C115.65 22.6105 115.919 22.8851 116.263 23.0878C116.607 23.2851 116.999 23.3838 117.438 23.3838ZM114.431 21.1118C114.431 20.5678 114.559 20.0691 114.814 19.6158C115.075 19.1571 115.433 18.7945 115.889 18.5278C116.344 18.2611 116.86 18.1278 117.438 18.1278C118.015 18.1278 118.531 18.2611 118.987 18.5278C119.442 18.7945 119.797 19.1571 120.053 19.6158C120.313 20.0691 120.444 20.5678 120.444 21.1118C120.444 21.6558 120.313 22.1571 120.053 22.6158C119.797 23.0691 119.442 23.4291 118.987 23.6958C118.531 23.9625 118.015 24.0958 117.438 24.0958C116.86 24.0958 116.344 23.9625 115.889 23.6958C115.433 23.4291 115.075 23.0691 114.814 22.6158C114.559 22.1571 114.431 21.6558 114.431 21.1118ZM126.198 21.7438C126.198 22.1705 126.087 22.5625 125.865 22.9198C125.643 23.2771 125.348 23.5625 124.982 23.7758C124.616 23.9838 124.232 24.0878 123.833 24.0878C123.394 24.0878 122.994 23.9838 122.633 23.7758C122.272 23.5678 121.987 23.2851 121.776 22.9278C121.57 22.5705 121.468 22.1758 121.468 21.7438V18.1918H122.209V21.7438C122.209 22.0531 122.278 22.3305 122.417 22.5758C122.556 22.8211 122.747 23.0131 122.992 23.1518C123.241 23.2905 123.522 23.3598 123.833 23.3598C124.121 23.3598 124.388 23.2905 124.632 23.1518C124.882 23.0131 125.082 22.8211 125.232 22.5758C125.382 22.3251 125.457 22.0478 125.457 21.7438V18.1918H126.198V21.7438ZM128.218 23.3438H131.291V24.0318H127.485V18.1918H128.218V23.3438Z" fill="#FF9B9B"/>
</svg>
