<svg width="800" height="1080" viewBox="0 0 800 1080" fill="none" xmlns="http://www.w3.org/2000/svg">
<rect width="800" height="1080" fill="#FFF5F5"/>
<path d="M163.614 613V467.545H212.761C224.125 467.545 233.453 469.487 240.744 473.369C248.036 477.205 253.434 482.484 256.938 489.207C260.441 495.931 262.193 503.578 262.193 512.148C262.193 520.718 260.441 528.317 256.938 534.946C253.434 541.575 248.06 546.783 240.815 550.571C233.571 554.312 224.314 556.182 213.045 556.182H173.273V540.273H212.477C220.242 540.273 226.492 539.136 231.227 536.864C236.009 534.591 239.466 531.371 241.597 527.205C243.775 522.991 244.864 517.972 244.864 512.148C244.864 506.324 243.775 501.234 241.597 496.878C239.419 492.522 235.938 489.16 231.156 486.793C226.374 484.378 220.053 483.17 212.193 483.17H181.227V613H163.614ZM232.08 547.659L267.875 613H247.42L212.193 547.659H232.08ZM291.543 613V467.545H379.327V483.17H309.157V532.318H374.782V547.943H309.157V597.375H380.464V613H291.543Z" fill="#FF9B9B"/>
<path d="M421.018 594.392C417.514 594.392 414.507 593.137 411.998 590.628C409.488 588.118 408.234 585.112 408.234 581.608C408.234 578.104 409.488 575.098 411.998 572.588C414.507 570.079 417.514 568.824 421.018 568.824C424.522 568.824 427.528 570.079 430.038 572.588C432.547 575.098 433.802 578.104 433.802 581.608C433.802 583.928 433.21 586.059 432.026 588C430.89 589.941 429.351 591.504 427.41 592.688C425.516 593.824 423.385 594.392 421.018 594.392ZM421.018 520.812C417.514 520.812 414.507 519.558 411.998 517.048C409.488 514.539 408.234 511.532 408.234 508.028C408.234 504.525 409.488 501.518 411.998 499.009C414.507 496.499 417.514 495.244 421.018 495.244C424.522 495.244 427.528 496.499 430.038 499.009C432.547 501.518 433.802 504.525 433.802 508.028C433.802 510.348 433.21 512.479 432.026 514.42C430.89 516.362 429.351 517.924 427.41 519.108C425.516 520.244 423.385 520.812 421.018 520.812ZM550.812 615.273L477.8 542.261C471.977 536.438 468.094 529.667 466.153 521.949C464.259 514.231 464.282 506.561 466.224 498.938C468.165 491.267 472.024 484.591 477.8 478.909C483.719 473.085 490.466 469.226 498.042 467.332C505.665 465.391 513.264 465.391 520.84 467.332C528.463 469.274 535.234 473.133 541.153 478.909L550.812 488.284L560.471 478.909C566.437 473.133 573.208 469.274 580.783 467.332C588.359 465.391 595.935 465.391 603.511 467.332C611.134 469.226 617.905 473.085 623.823 478.909C629.6 484.591 633.459 491.267 635.4 498.938C637.341 506.561 637.341 514.231 635.4 521.949C633.506 529.667 629.647 536.438 623.823 542.261L550.812 615.273Z" fill="white"/>
<path d="M163.614 613H156.614V620H163.614V613ZM163.614 467.545V460.545H156.614V467.545H163.614ZM240.744 473.369L237.454 479.548L237.47 479.556L237.486 479.565L240.744 473.369ZM256.938 489.207L250.73 492.442L250.73 492.442L256.938 489.207ZM256.938 534.946L250.749 531.675L250.749 531.675L256.938 534.946ZM240.815 550.571L244.027 556.791L244.043 556.783L244.059 556.774L240.815 550.571ZM173.273 556.182H166.273V563.182H173.273V556.182ZM173.273 540.273V533.273H166.273V540.273H173.273ZM231.227 536.864L228.223 530.541L228.21 530.547L228.198 530.553L231.227 536.864ZM241.597 527.205L235.378 523.99L235.371 524.004L235.364 524.018L241.597 527.205ZM231.156 486.793L228.001 493.041L228.026 493.054L228.051 493.066L231.156 486.793ZM181.227 483.17V476.17H174.227V483.17H181.227ZM181.227 613V620H188.227V613H181.227ZM232.08 547.659L238.219 544.296L236.226 540.659H232.08V547.659ZM267.875 613V620H279.691L274.014 609.637L267.875 613ZM247.42 613L241.259 616.322L243.242 620H247.42V613ZM212.193 547.659V540.659H200.467L206.032 550.981L212.193 547.659ZM170.614 613V467.545H156.614V613H170.614ZM163.614 474.545H212.761V460.545H163.614V474.545ZM212.761 474.545C223.387 474.545 231.484 476.369 237.454 479.548L244.034 467.191C235.421 462.605 224.863 460.545 212.761 460.545V474.545ZM237.486 479.565C243.631 482.797 247.942 487.093 250.73 492.442L263.145 485.972C258.925 477.875 252.441 471.612 244.003 467.174L237.486 479.565ZM250.73 492.442C253.649 498.043 255.193 504.556 255.193 512.148H269.193C269.193 502.6 267.234 493.819 263.145 485.972L250.73 492.442ZM255.193 512.148C255.193 519.742 253.648 526.19 250.749 531.675L263.126 538.217C267.235 530.444 269.193 521.694 269.193 512.148H255.193ZM250.749 531.675C247.967 536.937 243.679 541.174 237.572 544.368L244.059 556.774C252.44 552.392 258.9 546.212 263.126 538.217L250.749 531.675ZM237.604 544.351C231.658 547.421 223.601 549.182 213.045 549.182V563.182C225.028 563.182 235.484 561.202 244.027 556.791L237.604 544.351ZM213.045 549.182H173.273V563.182H213.045V549.182ZM180.273 556.182V540.273H166.273V556.182H180.273ZM173.273 547.273H212.477V533.273H173.273V547.273ZM212.477 547.273C220.83 547.273 228.234 546.065 234.256 543.174L228.198 530.553C224.751 532.208 219.655 533.273 212.477 533.273V547.273ZM234.232 543.186C240.214 540.343 244.906 536.108 247.829 530.392L235.364 524.018C234.026 526.634 231.805 528.839 228.223 530.541L234.232 543.186ZM247.815 530.419C250.611 525.01 251.864 518.839 251.864 512.148H237.864C237.864 517.104 236.939 520.971 235.378 523.99L247.815 530.419ZM251.864 512.148C251.864 505.448 250.608 499.248 247.858 493.747L235.336 500.008C236.941 503.22 237.864 507.2 237.864 512.148H251.864ZM247.858 493.747C244.932 487.896 240.272 483.494 234.262 480.519L228.051 493.066C231.605 494.826 233.905 497.147 235.336 500.008L247.858 493.747ZM234.311 480.544C228.202 477.459 220.676 476.17 212.193 476.17V490.17C219.43 490.17 224.547 491.297 228.001 493.041L234.311 480.544ZM212.193 476.17H181.227V490.17H212.193V476.17ZM174.227 483.17V613H188.227V483.17H174.227ZM181.227 606H163.614V620H181.227V606ZM225.94 551.022L261.736 616.363L274.014 609.637L238.219 544.296L225.94 551.022ZM267.875 606H247.42V620H267.875V606ZM253.582 609.678L218.355 544.337L206.032 550.981L241.259 616.322L253.582 609.678ZM212.193 554.659H232.08V540.659H212.193V554.659ZM291.543 613H284.543V620H291.543V613ZM291.543 467.545V460.545H284.543V467.545H291.543ZM379.327 467.545H386.327V460.545H379.327V467.545ZM379.327 483.17V490.17H386.327V483.17H379.327ZM309.157 483.17V476.17H302.157V483.17H309.157ZM309.157 532.318H302.157V539.318H309.157V532.318ZM374.782 532.318H381.782V525.318H374.782V532.318ZM374.782 547.943V554.943H381.782V547.943H374.782ZM309.157 547.943V540.943H302.157V547.943H309.157ZM309.157 597.375H302.157V604.375H309.157V597.375ZM380.464 597.375H387.464V590.375H380.464V597.375ZM380.464 613V620H387.464V613H380.464ZM298.543 613V467.545H284.543V613H298.543ZM291.543 474.545H379.327V460.545H291.543V474.545ZM372.327 467.545V483.17H386.327V467.545H372.327ZM379.327 476.17H309.157V490.17H379.327V476.17ZM302.157 483.17V532.318H316.157V483.17H302.157ZM309.157 539.318H374.782V525.318H309.157V539.318ZM367.782 532.318V547.943H381.782V532.318H367.782ZM374.782 540.943H309.157V554.943H374.782V540.943ZM302.157 547.943V597.375H316.157V547.943H302.157ZM309.157 604.375H380.464V590.375H309.157V604.375ZM373.464 597.375V613H387.464V597.375H373.464ZM380.464 606H291.543V620H380.464V606ZM411.998 590.628L407.048 595.578L407.048 595.578L411.998 590.628ZM411.998 572.588L407.048 567.638L407.048 567.638L411.998 572.588ZM430.038 572.588L434.987 567.638L434.987 567.638L430.038 572.588ZM432.026 588L426.05 584.356L426.017 584.409L425.985 584.464L432.026 588ZM427.41 592.688L431.011 598.69L431.033 598.677L431.054 598.664L427.41 592.688ZM411.998 499.009L416.948 503.958L416.948 503.958L411.998 499.009ZM430.038 499.009L425.088 503.958L425.088 503.958L430.038 499.009ZM432.026 514.42L426.05 510.776L426.017 510.83L425.985 510.884L432.026 514.42ZM427.41 519.108L431.011 525.11L431.033 525.098L431.054 525.085L427.41 519.108ZM421.018 587.392C419.397 587.392 418.163 586.894 416.948 585.678L407.048 595.578C410.851 599.381 415.631 601.392 421.018 601.392V587.392ZM416.948 585.678C415.732 584.462 415.234 583.229 415.234 581.608H401.234C401.234 586.995 403.245 591.774 407.048 595.578L416.948 585.678ZM415.234 581.608C415.234 579.987 415.732 578.754 416.948 577.538L407.048 567.638C403.245 571.442 401.234 576.221 401.234 581.608H415.234ZM416.948 577.538C418.163 576.322 419.397 575.824 421.018 575.824V561.824C415.631 561.824 410.851 563.835 407.048 567.638L416.948 577.538ZM421.018 575.824C422.638 575.824 423.872 576.322 425.088 577.538L434.987 567.638C431.184 563.835 426.405 561.824 421.018 561.824V575.824ZM425.088 577.538C426.304 578.754 426.802 579.987 426.802 581.608H440.802C440.802 576.221 438.791 571.442 434.987 567.638L425.088 577.538ZM426.802 581.608C426.802 582.67 426.55 583.536 426.05 584.356L438.003 591.644C439.87 588.582 440.802 585.186 440.802 581.608H426.802ZM425.985 584.464C425.44 585.395 424.73 586.123 423.766 586.711L431.054 598.664C433.973 596.884 436.34 594.488 438.067 591.536L425.985 584.464ZM423.808 586.685C423.081 587.122 422.211 587.392 421.018 587.392V601.392C424.559 601.392 427.951 600.526 431.011 598.69L423.808 586.685ZM421.018 513.812C419.397 513.812 418.163 513.314 416.948 512.099L407.048 521.998C410.851 525.801 415.631 527.812 421.018 527.812V513.812ZM416.948 512.099C415.732 510.883 415.234 509.649 415.234 508.028H401.234C401.234 513.415 403.245 518.195 407.048 521.998L416.948 512.099ZM415.234 508.028C415.234 506.408 415.732 505.174 416.948 503.958L407.048 494.059C403.245 497.862 401.234 502.641 401.234 508.028H415.234ZM416.948 503.958C418.163 502.743 419.397 502.244 421.018 502.244V488.244C415.631 488.244 410.851 490.256 407.048 494.059L416.948 503.958ZM421.018 502.244C422.638 502.244 423.872 502.743 425.088 503.958L434.987 494.059C431.184 490.256 426.405 488.244 421.018 488.244V502.244ZM425.088 503.958C426.304 505.174 426.802 506.408 426.802 508.028H440.802C440.802 502.641 438.791 497.862 434.987 494.059L425.088 503.958ZM426.802 508.028C426.802 509.09 426.55 509.956 426.05 510.776L438.003 518.065C439.87 515.002 440.802 511.607 440.802 508.028H426.802ZM425.985 510.884C425.44 511.815 424.73 512.544 423.766 513.131L431.054 525.085C433.973 523.305 436.34 520.908 438.067 517.957L425.985 510.884ZM423.808 513.106C423.081 513.542 422.211 513.812 421.018 513.812V527.812C424.559 527.812 427.951 526.947 431.011 525.11L423.808 513.106ZM550.812 615.273L545.862 620.222L550.812 625.172L555.762 620.222L550.812 615.273ZM477.8 542.261L482.75 537.312L482.75 537.312L477.8 542.261ZM466.153 521.949L459.354 523.617L459.359 523.637L459.364 523.656L466.153 521.949ZM466.224 498.938L473.007 500.665L473.01 500.655L466.224 498.938ZM477.8 478.909L482.709 483.9L482.71 483.899L477.8 478.909ZM498.042 467.332L499.74 474.123L499.755 474.12L499.769 474.116L498.042 467.332ZM520.84 467.332L519.103 474.113L519.113 474.116L520.84 467.332ZM541.153 478.909L536.263 483.919L536.27 483.925L536.277 483.932L541.153 478.909ZM550.812 488.284L545.936 493.307L550.812 498.039L555.687 493.307L550.812 488.284ZM560.471 478.909L555.602 473.88L555.596 473.886L560.471 478.909ZM580.783 467.332L582.521 474.113L582.521 474.113L580.783 467.332ZM603.511 467.332L601.773 474.113L601.798 474.12L601.823 474.126L603.511 467.332ZM623.823 478.909L618.913 483.899L618.914 483.9L623.823 478.909ZM635.4 498.938L628.614 500.655L628.616 500.665L635.4 498.938ZM635.4 521.949L628.611 520.241L628.606 520.261L628.602 520.281L635.4 521.949ZM623.823 542.261L628.773 547.211L628.773 547.211L623.823 542.261ZM555.762 610.323L482.75 537.312L472.851 547.211L545.862 620.222L555.762 610.323ZM482.75 537.312C477.788 532.35 474.563 526.688 472.941 520.241L459.364 523.656C461.625 532.645 466.165 540.525 472.851 547.211L482.75 537.312ZM472.951 520.281C471.328 513.667 471.353 507.163 473.007 500.665L459.44 497.21C457.212 505.958 457.19 514.795 459.354 523.617L472.951 520.281ZM473.01 500.655C474.629 494.258 477.823 488.706 482.709 483.9L472.892 473.919C466.225 480.476 461.701 488.276 459.438 497.22L473.01 500.655ZM482.71 483.899C487.797 478.893 493.453 475.695 499.74 474.123L496.344 460.541C487.479 462.758 479.641 467.277 472.891 473.92L482.71 483.899ZM499.769 474.116C506.262 472.462 512.67 472.465 519.103 474.113L522.578 460.551C513.859 458.317 505.068 458.32 496.314 460.549L499.769 474.116ZM519.113 474.116C525.482 475.738 531.178 478.955 536.263 483.919L546.042 473.9C539.291 467.31 531.444 462.809 522.568 460.549L519.113 474.116ZM536.277 483.932L545.936 493.307L555.687 483.261L546.028 473.886L536.277 483.932ZM555.687 493.307L565.346 483.932L555.596 473.886L545.936 483.261L555.687 493.307ZM565.34 483.938C570.488 478.953 576.197 475.734 582.521 474.113L579.046 460.551C570.218 462.814 562.385 467.312 555.602 473.88L565.34 483.938ZM582.521 474.113C588.957 472.464 595.337 472.464 601.773 474.113L605.248 460.551C596.533 458.318 587.762 458.318 579.046 460.551L582.521 474.113ZM601.823 474.126C608.16 475.7 613.835 478.901 618.913 483.899L628.733 473.92C621.974 467.269 614.108 462.752 605.198 460.539L601.823 474.126ZM618.914 483.9C623.801 488.706 626.995 494.258 628.614 500.655L642.186 497.22C639.922 488.276 635.399 480.476 628.732 473.919L618.914 483.9ZM628.616 500.665C630.267 507.148 630.272 513.637 628.611 520.241L642.188 523.656C644.41 514.825 644.415 505.974 642.183 497.21L628.616 500.665ZM628.602 520.281C627.024 526.71 623.827 532.358 618.873 537.312L628.773 547.211C635.467 540.517 639.988 532.624 642.198 523.617L628.602 520.281ZM618.873 537.312L545.862 610.323L555.762 620.222L628.773 547.211L618.873 537.312Z" fill="#FF9B9B"/>
</svg>
