<svg width="25" height="25" viewBox="0 0 25 25" fill="none" xmlns="http://www.w3.org/2000/svg">
<mask id="mask0_1274_3111" style="mask-type:alpha" maskUnits="userSpaceOnUse" x="0" y="0" width="25" height="25">
<rect x="0.960938" y="0.80957" width="24" height="24" fill="#D9D9D9"/>
</mask>
<g mask="url(#mask0_1274_3111)">
<path d="M20.5609 21.8096L14.2609 15.5096C13.7609 15.9096 13.1859 16.2262 12.5359 16.4596C11.8859 16.6929 11.1943 16.8096 10.4609 16.8096C8.64427 16.8096 7.10677 16.1804 5.84844 14.9221C4.5901 13.6637 3.96094 12.1262 3.96094 10.3096C3.96094 8.4929 4.5901 6.9554 5.84844 5.69707C7.10677 4.43874 8.64427 3.80957 10.4609 3.80957C12.2776 3.80957 13.8151 4.43874 15.0734 5.69707C16.3318 6.9554 16.9609 8.4929 16.9609 10.3096C16.9609 11.0429 16.8443 11.7346 16.6109 12.3846C16.3776 13.0346 16.0609 13.6096 15.6609 14.1096L21.9609 20.4096L20.5609 21.8096ZM10.4609 14.8096C11.7109 14.8096 12.7734 14.3721 13.6484 13.4971C14.5234 12.6221 14.9609 11.5596 14.9609 10.3096C14.9609 9.05957 14.5234 7.99707 13.6484 7.12207C12.7734 6.24707 11.7109 5.80957 10.4609 5.80957C9.21094 5.80957 8.14844 6.24707 7.27344 7.12207C6.39844 7.99707 5.96094 9.05957 5.96094 10.3096C5.96094 11.5596 6.39844 12.6221 7.27344 13.4971C8.14844 14.3721 9.21094 14.8096 10.4609 14.8096Z" fill="#1C1B1F"/>
</g>
</svg>
